<svg width="24" height="24" viewBox="0 0 24 24" fill="none" xmlns="http://www.w3.org/2000/svg">
<path d="M4 7.49999L11.6078 3.22061C11.7509 3.14013 11.8224 3.0999 11.8982 3.08413C11.9654 3.07018 12.0346 3.07018 12.1018 3.08413C12.1776 3.0999 12.2491 3.14013 12.3922 3.22061L20 7.49999M4 7.49999V16.0321C4 16.2025 4 16.2876 4.02499 16.3637C4.04711 16.431 4.08326 16.4928 4.13106 16.545C4.1851 16.6041 4.25933 16.6459 4.40779 16.7294L12 21M4 7.49999L12 11.5M20 7.49999V16.0321C20 16.2025 20 16.2876 19.975 16.3637C19.9529 16.431 19.9167 16.4928 19.8689 16.545C19.8149 16.6041 19.7407 16.6459 19.5922 16.7294L12 21M20 7.49999L12 11.5M12 21V11.5" stroke="#B4B4B4" stroke-width="1.9" stroke-linecap="round" stroke-linejoin="round"/>
</svg>
