<svg width="24" height="24" viewBox="0 0 24 24" fill="none" xmlns="http://www.w3.org/2000/svg">
<path d="M15.25 13.1667C15.0137 12.2157 13.9842 11.5 12.75 11.5C11.5158 11.5 10.4863 12.2157 10.25 13.1667M12.75 8.16667H12.7583M16.5 19H10C7.8998 19 6.84971 19 6.04753 18.5913C5.34192 18.2318 4.76825 17.6581 4.40872 16.9525C4 16.1503 4 15.1002 4 13V6.5M9.16667 16.5H16.3333C17.2667 16.5 17.7335 16.5 18.09 16.3183C18.4036 16.1586 18.6586 15.9036 18.8183 15.59C19 15.2335 19 14.7667 19 13.8333V6.66667C19 5.73325 19 5.26653 18.8183 4.91002C18.6586 4.59641 18.4036 4.34144 18.09 4.18166C17.7335 4 17.2667 4 16.3333 4H9.16667C8.23325 4 7.76653 4 7.41002 4.18166C7.09641 4.34144 6.84144 4.59641 6.68166 4.91002C6.5 5.26653 6.5 5.73324 6.5 6.66667V13.8333C6.5 14.7667 6.5 15.2335 6.68166 15.59C6.84144 15.9036 7.09641 16.1586 7.41002 16.3183C7.76653 16.5 8.23325 16.5 9.16667 16.5ZM13.5833 8.16667C13.5833 8.6269 13.2102 9 12.75 9C12.2897 9 11.9167 8.6269 11.9167 8.16667C11.9167 7.70643 12.2897 7.33333 12.75 7.33333C13.2102 7.33333 13.5833 7.70643 13.5833 8.16667Z" stroke="#B4B4B4" stroke-width="1.9" stroke-linecap="round" stroke-linejoin="round"/>
</svg>
